# xmcd
#
# Track frame offsets:
#	150
#	20148
#	36786
#	56376
#	67663
#	79959
#	97439
#	110999
#	124953
#	136638
#	153098
#	167575
#	179997
#
# Disc length: 2550 seconds
#
# Revision: 0
# Processed by: cddbd v1.5.2PL0 Copyright (c) Steve Scherf et al.
# Submitted via: audiograbber 1.83.01
#
DISCID=b609f40d
DTITLE=Guy Descoteaux - Maudit Calvaire
DYEAR=1900
DGENRE=Country
TTITLE0=All You Ever Do Is Bring Me Down(Mavericks-Mavericks)
TTITLE1=Lucille(Tex Lecor-Kenny Rogers)
TTITLE2=Friends In Low Places(Garth Brooks-Garth Brooks)
TTITLE3=Ces Jours Passés(Guy Descoteaux-Guy Descoteaux)
TTITLE4=Loin De Ma Mère(Paul Dwayne-Paul Dwayne)
TTITLE5=Ensemble Pour Toujours(Paul Dwayne-Paul Dwayne)
TTITLE6=Pop A Top(Alan Jackson-Alan Jackson)
TTITLE7=Les Anges Du Mexique()
TTITLE8=Un Coin Du Ciel(Marcel Martel-Marcel Martel)
TTITLE9=If Tomorrow Never Comes(Garth Brooks-Garth Brooks)
TTITLE10=Take Me Home,Country Road(John Denver-John Denver)
TTITLE11=Mon Amour(Guy Descoteaux-Guy Descoteaux)
TTITLE12=Maudit Calvaire(Guy Descoteaux-Guy Descoteaux)
EXTD=
EXTT0=
EXTT1=
EXTT2=
EXTT3=
EXTT4=
EXTT5=
EXTT6=
EXTT7=
EXTT8=
EXTT9=
EXTT10=
EXTT11=
EXTT12=
PLAYORDER=
